<?xml version="1.0" encoding="UTF-8"?>
<svg version="1.1" xmlns="http://www.w3.org/2000/svg" width="512" height="512">
<path d="M0 0 C2.45790199 2.20609858 4.82801087 4.47447274 7.1796875 6.79296875 C27.42000444 25.39770453 49.60433406 37.03660529 76.65209961 42.27148438 C77.45139893 42.42810547 78.25069824 42.58472656 79.07421875 42.74609375 C79.79456299 42.87661133 80.51490723 43.00712891 81.25708008 43.14160156 C84.69045954 44.30480873 86.08856093 46.92513802 88.1796875 49.79296875 C90.91154289 51.88739122 92.15973149 51.79332511 95.6796875 51.73046875 C99.87760328 50.60602702 100.72764804 49.25964522 103.1796875 45.79296875 C106.38281828 43.71882878 108.9983988 43.53300136 112.7699585 43.50535583 C113.90822083 43.49249039 115.04648315 43.47962494 116.21923828 43.46636963 C117.46398926 43.46256287 118.70874023 43.4587561 119.99121094 43.45483398 C121.3054303 43.44329788 122.61964966 43.43176178 123.97369385 43.4198761 C127.57717207 43.38939808 131.18058649 43.37235912 134.78416729 43.35965991 C137.03760173 43.35156775 139.29101797 43.34138687 141.54444122 43.33064461 C148.60093485 43.29793196 155.6573841 43.27403027 162.71394324 43.26183075 C170.84856153 43.24758269 178.98231122 43.20373001 187.11664176 43.13432926 C193.4114996 43.08248212 199.70611094 43.05765247 206.00117898 43.05300862 C209.75764249 43.04961631 213.51322722 43.03485269 217.26946259 42.99172783 C220.80588557 42.95183707 224.34082172 42.94562959 227.87740326 42.96462822 C229.78439782 42.96648818 231.69132937 42.93376905 233.59802246 42.89981079 C239.48667451 42.96390984 243.29698903 43.24847105 247.86773682 47.16517639 C251.37873381 50.7564706 254.2654788 54.73409743 257.125 58.8515625 C259.0907072 61.08827216 259.0907072 61.08827216 262.2734375 61.203125 C265.31792356 61.03574769 265.31792356 61.03574769 267.5546875 58.79296875 C270.46599712 56.57482809 272.51380018 56.03272528 276.18359375 56.19921875 C281.03492343 57.64227572 283.52482764 62.81067896 286.1796875 66.79296875 C288.48340171 67.97075187 288.48340171 67.97075187 291.1796875 67.79296875 C296.6611544 63.40604396 298.29171756 58.13380405 300.58398438 51.76757812 C300.86435547 51.02958984 301.14472656 50.29160156 301.43359375 49.53125 C301.79432983 48.5263855 301.79432983 48.5263855 302.16235352 47.5012207 C303.536884 45.1931838 304.67761287 44.77059893 307.1796875 43.79296875 C310.09230042 43.52554321 310.09230042 43.52554321 313.51782227 43.50244141 C315.44616661 43.48330185 315.44616661 43.48330185 317.41346741 43.46377563 C318.81600799 43.46071628 320.21855059 43.45848943 321.62109375 43.45703125 C323.06876251 43.45059806 324.51642999 43.44386931 325.96409607 43.43685913 C329.00124111 43.42488677 332.03827248 43.42117782 335.07543945 43.42236328 C338.93976485 43.42256549 342.80334667 43.39536627 346.66749668 43.36081886 C349.66095725 43.33840652 352.65424364 43.33453022 355.64777946 43.33558273 C357.07054116 43.3332443 358.49330897 43.3245215 359.91598701 43.308918 C370.88416136 43.19996993 381.34998784 44.16257869 389.6796875 52.01171875 C394.64929726 57.91313034 397.28722572 64.10973503 397.35668945 71.78979492 C397.36952469 73.02505417 397.38235992 74.26031342 397.39558411 75.53300476 C397.40375388 76.88397824 397.41119716 78.23495629 397.41796875 79.5859375 C397.42204428 80.26825251 397.4261198 80.95056751 397.43031883 81.65355873 C397.45116611 85.26781535 397.46547138 88.88203419 397.47485352 92.49633789 C397.48589177 96.21410174 397.52026454 99.93126273 397.56002522 103.6488142 C397.58628263 106.52032009 397.59455354 109.39168459 397.59813499 112.26329994 C397.60298056 113.63273484 397.61453626 115.00216429 397.63317299 116.37148094 C397.76147791 126.42671208 396.70073814 132.92782025 390.1171875 140.79296875 C385.63791716 146.58767038 383.28458211 152.37638121 384.1796875 159.79296875 C386.04162575 166.4427482 389.11375736 171.47388411 393.59375 176.6875 C397.17485104 181.44172034 397.46985365 185.99077536 397.44038391 191.78132629 C397.44420946 192.58033015 397.44803501 193.37933401 397.45197648 194.20255011 C397.46228642 196.8770439 397.45831812 199.55132219 397.4543457 202.22583008 C397.45869334 204.14459939 397.46387666 206.06336697 397.46983337 207.98213196 C397.48323045 213.19297019 397.48380114 218.40373592 397.48127007 223.61458802 C397.48020063 227.96590054 397.48508315 232.31719838 397.4898755 236.66850775 C397.50097359 246.93599875 397.50140668 257.20345317 397.49536133 267.47094727 C397.48932323 278.05859025 397.50162774 288.6461003 397.5229314 299.2337206 C397.54055438 308.32687343 397.54654757 317.41998398 397.54329365 326.51315325 C397.54148144 331.94265683 397.54411071 337.37206562 397.55800819 342.80155373 C397.57059284 347.90940294 397.5686363 353.01704521 397.55559731 358.12489128 C397.5532332 359.99694006 397.55596024 361.86900342 397.56422043 363.74103546 C397.57470395 366.30214931 397.56657449 368.86257089 397.5539093 371.42366028 C397.56128359 372.15957281 397.56865787 372.89548535 397.57625562 373.65369827 C397.48667419 382.30028245 394.2418355 388.5304303 388.375 394.80859375 C382.69733769 399.94071555 376.3368233 401.9092136 368.79180908 401.95359802 C367.81532004 401.96122975 367.81532004 401.96122975 366.81910396 401.96901566 C364.63363651 401.98473514 362.44820212 401.99326382 360.26269531 402.00170898 C358.69727366 402.01124781 357.13185413 402.02113899 355.56643677 402.03135681 C350.42192078 402.06273699 345.27738865 402.08300727 340.1328125 402.1015625 C338.81974703 402.10650848 338.81974703 402.10650848 337.48015499 402.11155438 C329.22403482 402.14233354 320.96791099 402.16903982 312.71175003 402.18597317 C302.15328063 402.20788296 291.59531953 402.24986357 281.03705335 402.31941074 C273.61189466 402.36665883 266.18687309 402.39090773 258.76156878 402.39817005 C254.32728355 402.40312488 249.89357131 402.41818915 245.45944977 402.45791435 C241.28630822 402.49480912 237.11406626 402.50318155 232.94079208 402.48990822 C231.41176375 402.48996212 229.88269527 402.5002397 228.35381699 402.52165985 C215.37024201 402.69379604 215.37024201 402.69379604 210.90252686 398.93690491 C209.96270856 397.9177079 209.05271668 396.86992791 208.1796875 395.79296875 C205.49916759 392.95836952 204.00911131 391.92567656 200.0546875 391.29296875 C195.23100022 391.91538001 193.47631716 393.66365643 190.07421875 396.96875 C189.13642578 397.87173828 189.13642578 397.87173828 188.1796875 398.79296875 C187.63555206 399.31758698 187.09141663 399.8422052 186.53079224 400.38272095 C183.29396122 402.32424816 180.3323823 402.21270302 176.66748047 402.18115234 C175.53954575 402.18903778 175.53954575 402.18903778 174.38882446 402.19708252 C171.8996302 402.21029292 169.411076 402.2015286 166.921875 402.19140625 C165.17709227 402.19342964 163.43231037 402.19634329 161.68753052 402.20010376 C158.02060945 402.20453097 154.35390732 402.19809429 150.68701172 402.18408203 C146.03879823 402.16716699 141.39111127 402.17671485 136.74291801 402.19479942 C133.13066847 402.20577932 129.518538 402.2021239 125.90628433 402.19441605 C124.19626933 402.19244365 122.48624275 402.19476646 120.7762413 402.20185471 C105.52177955 402.25112416 90.67113955 400.66396126 76.0546875 396.04296875 C75.22686768 395.78620361 74.39904785 395.52943848 73.54614258 395.26489258 C46.98889811 386.78483516 24.78200002 371.28975087 5.7421875 351.10546875 C-5.94015991 339.33892424 -22.29251436 332.9896704 -38.5859375 331.24609375 C-39.38290039 331.16004883 -40.17986328 331.07400391 -41.00097656 330.98535156 C-41.60135742 330.92186523 -42.20173828 330.85837891 -42.8203125 330.79296875 C-42.81143005 332.0655957 -42.80254761 333.33822266 -42.793396 334.64941406 C-42.71223395 346.6552467 -42.65231032 358.66102352 -42.61306381 370.66706848 C-42.59220832 376.83919732 -42.56392728 383.0111043 -42.51855469 389.18310547 C-42.47502519 395.14182714 -42.45116006 401.10033568 -42.44080353 407.0592041 C-42.43342499 409.33015293 -42.41901643 411.60109038 -42.39739227 413.87194824 C-42.36826464 417.05811576 -42.36436052 420.2434078 -42.36621094 423.4296875 C-42.35182983 424.36405136 -42.33744873 425.29841522 -42.32263184 426.26109314 C-42.36639409 433.24610168 -44.10163242 438.28979393 -48.390625 443.81640625 C-53.11192948 447.92085688 -57.5185633 449.79296875 -63.8203125 449.79296875 C-78.86703195 447.72424685 -95.18627465 440.85236811 -105.8203125 429.79296875 C-108.2036084 426.61185312 -110.14059765 423.39310526 -111.8203125 419.79296875 C-112.3333172 418.72151234 -112.84632191 417.65005592 -113.37487221 416.54613113 C-115.6886478 410.25872465 -115.23435512 403.66295799 -115.20126343 397.05487061 C-115.20472289 395.55096289 -115.20948938 394.04705772 -115.21544516 392.54315782 C-115.22794586 388.42275613 -115.22178898 384.30256344 -115.21248651 380.18216109 C-115.2056923 375.73348193 -115.21617925 371.28483843 -115.22442627 366.83616638 C-115.23776313 358.12490956 -115.23488568 349.41373031 -115.22618835 340.70247045 C-115.2194103 333.61990069 -115.21849562 326.53735265 -115.2217598 319.45478058 C-115.2222195 318.44632232 -115.22267919 317.43786406 -115.22315282 316.39884646 C-115.22411202 314.3500625 -115.22508466 312.30127855 -115.2260706 310.2524946 C-115.23462481 291.0413981 -115.22479077 271.83034455 -115.2086695 252.6192551 C-115.19527445 236.14735296 -115.19758765 219.67551427 -115.21142578 203.20361328 C-115.2274951 184.06696378 -115.23379225 164.93035195 -115.22458899 145.79369664 C-115.22363337 143.75127109 -115.22269026 141.70884554 -115.2217598 139.66641998 C-115.22129697 138.66156818 -115.22083414 137.65671638 -115.22035729 136.62141453 C-115.21777085 129.55217352 -115.22213111 122.48295647 -115.22919846 115.41371918 C-115.23762903 106.79141768 -115.23530096 98.16919807 -115.21935622 89.54690591 C-115.21149319 85.15048939 -115.20834809 80.7542092 -115.21830368 76.35779381 C-115.22729254 72.32716889 -115.22224926 68.2968057 -115.20637102 64.26620427 C-115.20304076 62.81402138 -115.2046774 61.36181604 -115.21199839 59.90964779 C-115.26769796 47.93550701 -113.67269955 37.27302766 -108.0703125 26.60546875 C-107.72033203 25.92548828 -107.37035156 25.24550781 -107.00976562 24.54492188 C-104.15480453 19.13959771 -100.93144753 14.33444531 -96.8203125 9.79296875 C-96.25183594 9.13296875 -95.68335937 8.47296875 -95.09765625 7.79296875 C-71.29038755 -18.0866949 -27.81263355 -21.76473401 0 0 Z " fill="#D5E9FA" transform="translate(114.8203125,38.20703125)"/>
<path d="M0 0 C2.77734921 2.48436026 5.34086445 5.17191711 7.91162109 7.86694336 C25.58089899 26.25171161 50.01905267 36.35768212 74.8984375 40.1640625 C79.37006427 41.36926165 81.94697896 43.69280147 84.8125 47.25 C87.45631236 49.36504989 89.52785679 49.73464268 92.89549541 49.60474014 C95.58998485 48.83046484 96.55686598 47.58061641 98.42207336 45.51165771 C103.88752667 40.55791878 109.4176362 41.02823021 116.49682617 41.12597656 C117.84949883 41.11975604 119.20216046 41.11052834 120.55479431 41.09854126 C124.20795106 41.0752851 127.85964779 41.09568194 131.51270843 41.1255846 C135.34338332 41.1508514 139.17398379 41.14017278 143.00471497 41.13470459 C149.43298886 41.13112644 155.86068806 41.1555985 162.28881836 41.19726562 C169.71566945 41.24509932 177.14161409 41.25028116 184.56857699 41.2323153 C191.72450569 41.21583397 198.88011073 41.22768147 206.03600502 41.25304413 C209.077019 41.26343385 212.11781195 41.26425152 215.15883446 41.25739288 C218.73874598 41.25072931 222.31769566 41.2689969 225.89740944 41.30640793 C227.83458895 41.32086539 229.77190271 41.31087165 231.70910645 41.30014038 C240.22706436 41.4252763 240.22706436 41.4252763 244.1789093 44.3637085 C244.77986923 45.23368469 245.38082916 46.10366089 246 47 C246.74121094 47.94359375 247.48242188 48.8871875 248.24609375 49.859375 C249.71110434 51.79183104 251.16941779 53.72938194 252.62109375 55.671875 C255.47714574 58.46696036 257.03399569 58.97359518 261 59 C262.95780952 58.07848984 262.95780952 58.07848984 264.5 56.5625 C266.95484285 54.63215001 267.95489827 54.00902035 271.125 53.375 C275.06439048 54.23138924 276.50702667 55.88378334 279 59 C280.3125 61.8125 280.3125 61.8125 281 64 C282.2375 64.226875 283.475 64.45375 284.75 64.6875 C285.44609375 64.81511719 286.1421875 64.94273437 286.859375 65.07421875 C289.97262331 64.96627766 290.85289758 64.28881117 293 62 C294.3995847 59.08117894 295.44694481 56.05818767 296.5 53 C297.06098366 51.37084198 297.63352982 49.74560972 298.21875 48.125 C298.46560547 47.40570313 298.71246094 46.68640625 298.96679688 45.9453125 C300.38376097 43.27745571 301.26524656 42.38253434 304 41 C307.31716541 40.54605071 310.60907461 40.5559469 313.953125 40.56640625 C314.92731384 40.5611644 315.90150269 40.55592255 316.9052124 40.55052185 C318.96625822 40.54410182 321.02734068 40.54543839 323.08837891 40.55395508 C326.22495817 40.56243232 329.35969589 40.53375593 332.49609375 40.50195312 C334.50260362 40.50034005 336.5091167 40.50092068 338.515625 40.50390625 C339.44610657 40.49267227 340.37658813 40.48143829 341.33526611 40.46986389 C348.19270261 40.54235421 353.61663847 41.59316716 358.58146667 46.59243774 C362.97519518 52.49581926 362.70910852 58.76891324 362.62890625 65.87109375 C362.63131821 67.10682632 362.63373016 68.3425589 362.63621521 69.61573792 C362.63523818 72.22717499 362.62187939 74.83863315 362.59692383 77.44995117 C362.5628772 81.39380644 362.57621178 85.33538446 362.59570312 89.27929688 C362.58195644 113.74181241 359.30249469 136.02051959 342.2890625 154.8984375 C340.506145 157.8051333 340.62739755 160.11005745 340.5625 163.5 C339.9860798 174.17485868 337.00731369 183.74888813 330 192 C327.45483055 194.187255 326.37358063 194.94551949 323 195.4375 C320 195 320 195 317.625 193.4375 C315.28632394 189.9294859 315.31671416 188.16804365 316 184 C317.38527504 181.56651981 318.90827128 179.35140253 320.58984375 177.11328125 C321.98387819 175.02416038 322.56280679 173.45160241 323 171 C321.87078125 171.58007812 321.87078125 171.58007812 320.71875 172.171875 C307.91247994 178.45067731 295.28692376 181.51072179 281 182 C281.86625 182.63615234 281.86625 182.63615234 282.75 183.28515625 C288.79251131 188.05832057 288.79251131 188.05832057 289.8125 192.6875 C289 196 289 196 286.9375 198.5 C284.04349278 199.97779092 282.23236068 200.61499206 279.015625 199.9296875 C273.66844458 197.46335234 268.98601633 192.49330435 265.35888672 187.93969727 C261.51480323 183.42100988 258.81395464 181.4798278 252.8125 180.97265625 C250.54150014 180.96080068 248.26992773 180.99172561 246 181.0625 C244.29457031 181.02866211 244.29457031 181.02866211 242.5546875 180.99414062 C236.64018512 181.06618503 232.89601921 181.46628705 228.421875 185.515625 C227.84018555 186.14887695 227.25849609 186.78212891 226.65917969 187.43457031 C225 189 225 189 221.25 189.6875 C217.45718788 188.88517436 216.12837497 188.23512995 214 185 C213.4375 182.0625 213.4375 182.0625 214 179 C216.5 176.125 216.5 176.125 219 174 C217.97631989 171.91472571 216.92454734 169.86650684 215.78125 167.84375 C212.64433496 162.10549078 211.30055117 157.18465292 210.75 150.6640625 C209.69726073 146.92464488 208.36972024 145.89768456 205 144 C202.01669263 143.65351351 199.46549715 143.52366612 196.5 143.625 C195.69828369 143.64151611 194.89656738 143.65803223 194.07055664 143.67504883 C164.84829354 144.52533166 140.6608195 156.57953968 119.84375 176.66015625 C115.22868557 180.01390011 111.2121233 179.97496724 105.75 179.5 C97.64446974 179.84454964 93.91506964 184.25265905 88.5625 190 C87.81774414 190.84498047 87.07298828 191.68996094 86.30566406 192.56054688 C80.13598434 199.47479539 80.13598434 199.47479539 76.1171875 200.15234375 C73 200 73 200 70.5625 198.5625 C68.83004638 195.72127606 68.37887841 193.54905361 68.44506836 190.22631836 C69.60750164 185.56277718 73.56330538 182.6348228 77 179.5 C77.763125 178.77296875 78.52625 178.0459375 79.3125 177.296875 C81.19153506 175.51179169 83.08656814 173.74804214 85 172 C84.566875 170.948125 84.566875 170.948125 84.125 169.875 C83.75375 168.92625 83.3825 167.9775 83 167 C82.63366455 166.09668945 82.2673291 165.19337891 81.88989258 164.26269531 C80.73844238 160.04102714 80.74014881 156.15090244 80.76171875 151.796875 C80.74629497 149.99348209 80.72999103 148.19009654 80.71289062 146.38671875 C80.69648671 143.5716109 80.68748224 140.75704596 80.69458008 137.94189453 C81.10660621 123.11244467 81.10660621 123.11244467 75 110 C70.02448545 105.21767546 64.70700892 103.60522595 57.9375 102.5 C53.51281297 103.25313822 51.91760118 105.66559866 49 109 C50.39761899 112.18829091 52.02987669 114.22757481 54.5546875 116.609375 C55.25207031 117.28226562 55.94945312 117.95515625 56.66796875 118.6484375 C58.12742871 120.03815336 59.59091632 121.42365292 61.05859375 122.8046875 C66.20732301 127.79222266 70.11502171 132.52305102 71.53125 139.6875 C71.45197264 145.55402459 70.66101064 150.27709401 67 155 C61.97466504 159.55855484 58.08670787 162.14795958 51.25 162.25 C50.22390625 162.27578125 49.1978125 162.3015625 48.140625 162.328125 C42.21632281 161.70916805 38.36766767 158.74312702 34.328125 154.55078125 C33.08482422 153.27944336 33.08482422 153.27944336 31.81640625 151.98242188 C30.96949219 151.10134766 30.12257813 150.22027344 29.25 149.3125 C27.55138895 147.55422175 25.84848946 145.80007279 24.140625 144.05078125 C23.39329102 143.27387939 22.64595703 142.49697754 21.87597656 141.6965332 C20.17432543 139.77641868 20.17432543 139.77641868 18 140 C17.34 140.99 16.68 141.98 16 143 C15.34 143 14.68 143 14 143 C14 143.66 14 144.32 14 145 C13.34 145 12.68 145 12 145 C12 145.66 12 146.32 12 147 C11.34 147 10.68 147 10 147 C10 147.66 10 148.32 10 149 C9.34 149 8.68 149 8 149 C8 149.66 8 150.32 8 151 C7.34 151 6.68 151 6 151 C6 151.66 6 152.32 6 153 C0.59795356 158.81336977 -4.44010124 161.96126289 -12.4375 162.3125 C-18.15654022 162.15871068 -22.2866776 160.43440945 -26.6875 156.75 C-31.38731069 151.16103593 -33.89766894 146.97355737 -33.4765625 139.58203125 C-31.27939517 127.67770664 -19.33708285 118.95179285 -11 111 C-12.43442192 107.68947739 -14.19829688 105.60961536 -16.80859375 103.13671875 C-17.55560547 102.41419922 -18.30261719 101.69167969 -19.07226562 100.94726562 C-20.64119866 99.44829327 -22.21408639 97.95344863 -23.79101562 96.46289062 C-28.9044238 91.49922911 -32.87470751 87.5164958 -33.08203125 80.04296875 C-32.99308594 79.10066406 -32.90414062 78.15835938 -32.8125 77.1875 C-32.65258176 71.33594619 -34.1249215 68.31807046 -37.34375 63.54296875 C-45.54032887 50.95812714 -48.93947102 33.80462881 -47 19 C-43.86529023 8.88343666 -37.61413177 2.59304433 -28.875 -3 C-20.02283676 -6.15706521 -7.79224027 -5.32833875 0 0 Z " fill="#88D46A" transform="translate(118,65)"/>
<path d="M0 0 C1.00844971 0.00942627 2.01689941 0.01885254 3.0559082 0.02856445 C10.24628869 0.17435858 16.77991633 0.85171738 23.5625 3.375 C24.573125 3.73851562 25.58375 4.10203125 26.625 4.4765625 C33.18607388 7.01897863 38.89732097 10.21195177 44.5625 14.375 C43.9025 14.705 43.2425 15.035 42.5625 15.375 C41.84449219 15.07464844 41.12648438 14.77429687 40.38671875 14.46484375 C34.10373368 12.04028935 26.04328616 12.38640155 19.60546875 14.21484375 C11.52988949 17.89909419 5.50102374 24.4667162 2.21875 32.71484375 C-1.86798798 49.28072805 4.08079362 66.71729137 11.5625 81.375 C12.29597656 82.39722656 13.02945313 83.41945313 13.78515625 84.47265625 C16.29719964 88.57474029 15.7090485 91.53263481 15.3125 96.1796875 C16.02438389 105.27845349 22.55244802 110.86926263 28.8125 116.875 C30.07320312 118.10863281 30.07320312 118.10863281 31.359375 119.3671875 C33.41823297 121.37925325 35.48585815 123.38132172 37.5625 125.375 C36.2045392 128.43803493 34.69847632 130.44309866 32.26171875 132.73046875 C31.29008789 133.66536133 31.29008789 133.66536133 30.29882812 134.61914062 C28.9488562 135.89961924 27.59477445 137.17578095 26.23632812 138.44726562 C20.42163394 144.06641124 15.60233064 150.01955515 14.875 158.3125 C15.18630925 164.17243882 17.813841 168.94328817 21.5625 173.375 C27.27127238 177.37749383 32.72725993 178.04466879 39.5625 177.375 C42.10840103 176.60924071 44.16934897 175.59503778 46.5625 174.375 C47.34625 174.045 48.13 173.715 48.9375 173.375 C50.91080069 172.40046436 50.91080069 172.40046436 51.5625 169.375 C52.2225 169.375 52.8825 169.375 53.5625 169.375 C53.5625 168.715 53.5625 168.055 53.5625 167.375 C54.2225 167.375 54.8825 167.375 55.5625 167.375 C55.5625 166.715 55.5625 166.055 55.5625 165.375 C56.2225 165.375 56.8825 165.375 57.5625 165.375 C57.5625 164.715 57.5625 164.055 57.5625 163.375 C58.2225 163.375 58.8825 163.375 59.5625 163.375 C59.5625 162.715 59.5625 162.055 59.5625 161.375 C60.2225 161.375 60.8825 161.375 61.5625 161.375 C61.5625 160.715 61.5625 160.055 61.5625 159.375 C62.85483607 158.00189293 64.18687146 156.66465176 65.5625 155.375 C68.99333995 156.84570373 71.14044069 158.75456094 73.71484375 161.4375 C74.49150391 162.23414063 75.26816406 163.03078125 76.06835938 163.8515625 C77.68757352 165.5319036 79.30476808 167.21419319 80.91992188 168.8984375 C81.69787109 169.69507813 82.47582031 170.49171875 83.27734375 171.3125 C83.97980225 172.04339844 84.68226074 172.77429688 85.40600586 173.52734375 C90.23628197 177.66586177 95.34217214 177.93352863 101.484375 177.8125 C107.30302815 176.98548331 111.39782845 174.12043708 115.00390625 169.546875 C117.92157859 164.54515099 118.68231976 159.03997055 117.5625 153.375 C114.67263449 145.9794302 109.98442108 141.31649929 104.3125 135.875 C103.47203125 135.05257812 102.6315625 134.23015625 101.765625 133.3828125 C99.70676703 131.37074675 97.63914185 129.36867828 95.5625 127.375 C97.41343269 123.51613587 99.03272314 120.94879563 102.5625 118.375 C108.94310346 117.71607365 115.44381859 119.5304968 120.5625 123.375 C127.011605 130.22538264 128.84683224 136.30616141 128.8359375 145.515625 C128.85623394 147.32682901 128.87708486 149.13802688 128.8984375 150.94921875 C128.92097131 153.78406979 128.9374869 156.61867697 128.94335938 159.45361328 C128.95295058 162.20389147 128.98681084 164.95309166 129.0234375 167.703125 C129.01586929 168.95515717 129.01586929 168.95515717 129.00814819 170.23248291 C129.09872831 175.72355027 130.22890545 179.54195018 132.90176392 184.35565186 C133.5625 186.375 133.5625 186.375 132.77209473 188.5333252 C131.46027365 190.53064527 130.0855442 191.9558103 128.3046875 193.546875 C127.67949219 194.12953125 127.05429688 194.7121875 126.41015625 195.3125 C125.09854216 196.51762661 123.77556629 197.71050692 122.44140625 198.890625 C118.88021494 202.17091952 118.88021494 202.17091952 117.09643555 206.53881836 C117.05587071 209.45717789 117.27911166 211.82489322 118.625 214.4375 C121.03492483 215.60359266 122.9158101 215.61342381 125.5402832 215.19311523 C130.03784286 213.37356647 132.98787638 208.93382197 136.125 205.375 C144.80278178 196.06699822 144.80278178 196.06699822 149.53125 195.1015625 C153.125 195 153.125 195 156.5078125 195.203125 C161.22889018 195.46876108 164.67728414 193.9651439 168.5625 191.375 C170.28717352 189.8010261 171.85788122 188.13418269 173.44921875 186.42578125 C192.35738161 168.07682469 218.12239309 159.62007255 244 158.9375 C244.75788818 158.90293701 245.51577637 158.86837402 246.29663086 158.83276367 C250.2162833 158.80361319 252.84502433 159.15922355 256.03125 161.546875 C258.81811887 164.66059886 259.3248716 165.97529693 259.625 170.0625 C260.37541195 176.33656281 262.48258779 180.92592456 265.5625 186.375 C266.23644258 187.70467049 266.90558319 189.03683613 267.5625 190.375 C266.7375 191.07625 265.9125 191.7775 265.0625 192.5 C262.3167157 195.14600808 262.3167157 195.14600808 262.0625 198.5 C262.38426226 201.30573133 262.38426226 201.30573133 263.625 203.25 C266.88441875 205.14256573 268.84971622 204.98365308 272.5625 204.375 C274.30411602 202.8160753 274.30411602 202.8160753 276.015625 200.921875 C281.23133589 196.20939755 286.29915527 195.99456659 293.125 196 C294.85012817 195.99262817 294.85012817 195.99262817 296.61010742 195.98510742 C303.79837967 196.31555035 308.24949456 197.61721961 313.49389648 202.60888672 C315.85490468 205.21779311 318.03847105 207.92768893 320.17700195 210.72045898 C322.04001732 212.94524404 323.90435329 214.23199692 326.5625 215.375 C331.61943194 215.19738846 331.61943194 215.19738846 335.5625 212.375 C336.39897486 209.08986878 336.39897486 209.08986878 335.5625 205.375 C333.63018419 203.23595172 331.59016053 201.5214177 329.3125 199.7578125 C328.44625 199.07332031 328.44625 199.07332031 327.5625 198.375 C327.5625 198.045 327.5625 197.715 327.5625 197.375 C328.83222656 197.28863281 330.10195313 197.20226562 331.41015625 197.11328125 C346.08384392 195.97099242 358.20792084 192.70085329 371.5625 186.375 C371.01544803 190.32208386 369.90484658 192.60039006 367.5 195.75 C364.71617993 199.76512511 363.66553217 202.39184538 364.5625 207.375 C365.54298938 209.43902685 365.54298938 209.43902685 367.5625 210.375 C370.47690699 211.04221536 370.47690699 211.04221536 373.5625 210.375 C380.75038427 204.76494399 384.92677658 196.21278923 386.5625 187.375 C386.62166455 185.08371831 386.66225874 182.79190643 386.6875 180.5 C387.05902736 173.33261795 389.6382225 169.83152661 394.14453125 164.4296875 C402.51049986 153.86072554 406.54152264 140.53116636 408.5625 127.375 C408.8925 127.375 409.2225 127.375 409.5625 127.375 C409.5625 177.205 409.5625 227.035 409.5625 278.375 C407.95673636 275.96635455 406.72373179 273.69746359 405.4375 271.125 C401.42923749 263.88654947 395.53079795 258.83055271 387.5625 256.375 C384.50996062 255.88889593 381.45779617 255.69794927 378.375 255.5 C365.01241271 254.33077361 356.11414147 249.5125538 345.5625 241.375 C331.99186833 231.15023097 318.14531979 229.84991786 301.5625 231.375 C281.36442153 234.27376376 264.15992364 244.71456838 248.5625 257.375 C248.36354484 251.30686752 248.87408393 245.89497631 250.125 239.953125 C250.79157324 236.02510411 251.23536445 233.39775397 249 230 C246.55657073 228.05416058 246.55657073 228.05416058 243 228.3125 C239.48507421 229.02954487 239.48507421 229.02954487 237.921875 231.5703125 C232.92983451 241.86998224 233.0511287 257.32496629 235.5625 268.375 C236.2225 269.035 236.8825 269.695 237.5625 270.375 C237.390625 272.23046875 237.390625 272.23046875 236.8125 274.5625 C235.49548144 280.28903008 234.89485636 286.01614174 234.3203125 291.859375 C232.90716562 298.41521105 229.26906527 301.92716479 224.0625 305.875 C218.73360709 310.10258838 214.9475636 313.51983376 213.5625 320.375 C213.45253795 321.87024638 213.38732965 323.36918299 213.35717773 324.86816406 C213.33723251 325.74877502 213.31728729 326.62938599 213.29673767 327.53668213 C213.27166893 328.94938385 213.27166893 328.94938385 213.24609375 330.390625 C213.22531265 331.36159119 213.20453156 332.33255737 213.18312073 333.33294678 C213.11781138 336.43022685 213.05882677 339.52759068 213 342.625 C212.95679708 344.72657111 212.91318222 346.8281338 212.86914062 348.9296875 C212.76214902 354.07803948 212.6608291 359.22647558 212.5625 364.375 C204.21626161 364.44506703 195.8701498 364.4980949 187.52368832 364.53043652 C183.64646317 364.54597295 179.76944187 364.56698577 175.89233398 364.60131836 C172.13809318 364.63434803 168.38404619 364.6519429 164.6296711 364.65963173 C163.21021035 364.66509825 161.79075803 364.67576794 160.37138176 364.69219017 C150.36997554 364.80311341 141.27095811 363.67872599 131.5625 361.375 C130.27919296 361.07478439 128.99588593 360.77456879 127.6736908 360.46525574 C100.19249518 353.84162736 76.68036394 338.86246766 56.5625 319.375 C55.39074219 318.26318359 55.39074219 318.26318359 54.1953125 317.12890625 C52.60380067 315.59172314 51.07348637 313.99140403 49.5625 312.375 C49.5625 311.715 49.5625 311.055 49.5625 310.375 C54.82114725 308.47100703 59.87367728 307.08827383 65.375 306.0625 C78.8377674 303.2366231 89.8452126 296.34098002 97.875 285.0625 C106.23193634 271.52996104 108.71211674 256.85772282 105.4375 241.2578125 C101.53235105 228.39174142 94.30129363 217.5165326 82.5625 210.75 C77.77565546 207.94162935 77.77565546 207.94162935 76.78515625 205.30859375 C76.63613382 203.33495522 76.59494247 201.35399071 76.5625 199.375 C75.03972993 196.76779682 75.03972993 196.76779682 72.5625 195.375 C69.32664698 194.91273528 67.48000919 194.74223504 64.75 196.625 C63.4490605 198.542174 63.06725603 200.13369801 62.5625 202.375 C50.84268153 201.98071376 41.0905461 201.03640554 30.375 195.9375 C12.80413218 187.85048971 -5.77478974 186.47197781 -23.9921875 193.0859375 C-25.12914062 193.51132813 -26.26609375 193.93671875 -27.4375 194.375 C-29.76765239 195.05270104 -32.10062154 195.72086857 -34.4375 196.375 C-34.5309248 172.74881097 -34.60147018 149.12264961 -34.64474869 125.4963131 C-34.66537741 114.52628786 -34.69350404 103.55637737 -34.73925781 92.58642578 C-34.77911595 83.02545935 -34.80493055 73.46457602 -34.81385398 63.90352881 C-34.81907044 58.840594 -34.83133762 53.77789694 -34.86042023 48.7150383 C-34.88757308 43.94950659 -34.89594522 39.18431052 -34.88993073 34.4187088 C-34.89103102 32.66997326 -34.8989857 30.92122647 -34.9143219 29.17255783 C-34.93424827 26.78327736 -34.92943024 24.39526115 -34.91851807 22.00595093 C-34.93016943 21.31527539 -34.9418208 20.62459985 -34.95382524 19.91299474 C-34.89291948 14.97332221 -33.47705745 12.20661725 -30.4375 8.375 C-22.19979575 0.98124764 -10.58193463 -0.15403237 0 0 Z " fill="#14BDF6" transform="translate(70.4375,48.625)"/>
<path d="M0 0 C3.5 0.875 3.5 0.875 5.5 2.4375 C6.6677175 5.28381142 6.41354375 7.18327555 5.89453125 10.171875 C5.35111449 13.89508684 5.15350563 17.62045931 4.9375 21.375 C4.89399414 22.1062207 4.85048828 22.83744141 4.80566406 23.59082031 C4.70157043 25.35208457 4.60047246 27.11352546 4.5 28.875 C4.99886719 28.3903125 5.49773437 27.905625 6.01171875 27.40625 C24.77331192 9.8909386 48.66651829 1.59190351 74.0546875 2.43359375 C86.2660962 3.18969857 95.04154781 8.39929788 104.5 15.875 C113.72277509 22.63733677 121.61827872 25.86970712 133 26.8125 C142.96700611 27.66254186 151.00465103 29.98689142 157.85513306 37.74760437 C165.0427286 47.04371152 165.24574769 56.85855548 165.1640625 68.07421875 C165.16743868 69.72085425 165.17229793 71.36748731 165.17855835 73.01411438 C165.18588587 76.44593297 165.17535483 79.87709613 165.15185547 83.30883789 C165.12330136 87.69026133 165.13983848 92.0701575 165.16971779 96.45152569 C165.18784557 99.84468456 165.18200903 103.23748523 165.16907883 106.63065529 C165.16576341 108.24566648 165.16976571 109.86071108 165.18147659 111.47568321 C165.26680109 126.53842763 165.26680109 126.53842763 161.15634155 132.42268372 C154.86878374 137.93575111 148.0899815 137.31325193 140.15429688 137.29492188 C138.79369919 137.30226773 137.43310773 137.31085546 136.07252502 137.32058716 C132.38865517 137.34275442 128.70500931 137.34573639 125.02108192 137.34383965 C121.94200461 137.34371976 118.86297443 137.35229113 115.78391027 137.36061716 C108.51915673 137.37983285 101.25451809 137.38274128 93.98974609 137.37597656 C86.50167617 137.36933221 79.0140984 137.39221976 71.52612829 137.42929029 C65.08941993 137.459997 58.65286985 137.47134644 52.21608973 137.46745348 C48.37498288 137.46538748 44.53425935 137.47084203 40.69322205 137.49534607 C37.08144467 137.51762812 33.47046766 137.51572448 29.85868645 137.49541855 C27.90609318 137.4903899 25.95348488 137.51001515 24.00099182 137.53042603 C14.42957996 137.43866315 14.42957996 137.43866315 10.81433105 134.5123291 C9.23362321 132.71101084 7.67119905 130.89352519 6.125 129.0625 C3.25560843 126.67134036 1.37451597 126.02613895 -2.37890625 126.24609375 C-5.86861424 127.28079538 -8.08795687 129.53503188 -10.640625 132.05078125 C-11.25421875 132.65277344 -11.8678125 133.25476563 -12.5 133.875 C-13.02819336 134.40375732 -13.55638672 134.93251465 -14.10058594 135.47729492 C-17.55840982 137.49154418 -20.87214787 137.19610091 -24.75 137.0625 C-25.49507813 137.04896484 -26.24015625 137.03542969 -27.0078125 137.02148438 C-28.83885416 136.98627204 -30.66952169 136.93246851 -32.5 136.875 C-32.57447293 130.75523503 -32.62875469 124.63573722 -32.66479492 118.515625 C-32.67982843 116.43615113 -32.70026074 114.35670869 -32.72631836 112.27734375 C-32.76294136 109.27856666 -32.77978111 106.28021089 -32.79296875 103.28125 C-32.80845261 102.36009399 -32.82393646 101.43893799 -32.83988953 100.48986816 C-32.84163279 93.71734628 -32.06374964 87.81964958 -27.44921875 82.51953125 C-26.70285156 81.91496094 -25.95648438 81.31039062 -25.1875 80.6875 C-24.39472656 80.02363281 -23.60195313 79.35976563 -22.78515625 78.67578125 C-21.43391511 77.61095703 -20.07091581 76.56033826 -18.68359375 75.54296875 C-13.17586781 71.41562525 -11.95804027 66.7209569 -10.9140625 60.234375 C-10.55069582 57.6455468 -10.23490785 55.05798786 -9.9296875 52.4609375 C-9.5 48.875 -9.5 48.875 -8.8203125 45.5390625 C-8.71460938 44.65992188 -8.60890625 43.78078125 -8.5 42.875 C-9.16 42.215 -9.82 41.555 -10.5 40.875 C-12.98751575 29.92993068 -13.2340589 14.26948847 -8.11328125 4.12890625 C-5.6447347 0.68011361 -4.26835081 -0.1524411 0 0 Z " fill="#85D067" transform="translate(315.5,276.125)"/>
<path d="M0 0 C6.77434171 3.15556572 12.68184342 3.59833813 20.1003418 3.98022461 C25.15881471 4.27215638 25.15881471 4.27215638 27.36401367 5.37475586 C27.46713867 4.61163086 27.57026367 3.84850586 27.67651367 3.06225586 C28.43217527 0.10830597 28.8261575 -0.96251078 31.36401367 -2.62524414 C35.36508292 -3.32108227 36.88297792 -2.95987771 40.23901367 -0.62524414 C43.09389951 3.40518293 42.77441686 5.53199827 42.36401367 10.37475586 C43.35401367 10.68413086 43.35401367 10.68413086 44.36401367 10.99975586 C57.2994072 16.92847789 65.1749554 28.56741258 70.36401367 41.37475586 C73.41686346 51.40167137 73.93950013 63.43043414 70.36401367 73.37475586 C70.03401367 74.31061523 69.70401367 75.24647461 69.36401367 76.21069336 C63.96198322 90.31994395 54.30685298 100.68315212 40.60620117 107.13256836 C36.07289671 108.86942477 31.53336621 109.84199084 26.76245117 110.69506836 C23.49813833 111.34793093 20.55920936 112.33008396 17.42651367 113.43725586 C14.72338867 114.17944336 14.72338867 114.17944336 12.36401367 114.37475586 C9.17651367 112.06225586 9.17651367 112.06225586 7.54760742 110.33569336 C-6.79141851 97.45878635 -26.25170189 96.92307986 -44.39038086 97.21362305 C-46.80570672 97.29381884 -46.80570672 97.29381884 -49.63598633 98.37475586 C-55.66830267 99.20762005 -59.77990205 98.28414226 -64.90942383 95.05444336 C-68.31573969 91.74060666 -69.79491806 88.00243586 -69.99674988 83.31240845 C-70.00537379 81.74677443 -69.99763516 80.18099447 -69.9765625 78.61547852 C-69.97721962 77.32669296 -69.97721962 77.32669296 -69.97789001 76.01187134 C-69.97580903 73.18728482 -69.9525107 70.3633005 -69.92895508 67.53881836 C-69.92335667 65.57441533 -69.91908773 63.61000809 -69.91609192 61.64559937 C-69.90466247 56.48671818 -69.87521157 51.3280922 -69.84197998 46.16931152 C-69.81123815 40.9005885 -69.79757779 35.63182406 -69.7824707 30.36303711 C-69.75034011 20.03349818 -69.69916669 9.70414828 -69.63598633 -0.62524414 C-67.22653999 -1.59908744 -64.81619436 -2.57059121 -62.40527344 -3.54077148 C-61.72594505 -3.81561874 -61.04661667 -4.090466 -60.34670258 -4.37364197 C-39.86813992 -12.60209077 -19.54524278 -9.11415291 0 0 Z " fill="#8CD66E" transform="translate(105.635986328125,245.625244140625)"/>
<path d="M0 0 C1.00844971 0.00942627 2.01689941 0.01885254 3.0559082 0.02856445 C10.24628869 0.17435858 16.77991633 0.85171738 23.5625 3.375 C24.573125 3.73851562 25.58375 4.10203125 26.625 4.4765625 C33.18607388 7.01897863 38.89732097 10.21195177 44.5625 14.375 C43.9025 14.705 43.2425 15.035 42.5625 15.375 C41.84449219 15.07464844 41.12648438 14.77429687 40.38671875 14.46484375 C34.10373368 12.04028935 26.04328616 12.38640155 19.60546875 14.21484375 C11.52988949 17.89909419 5.50102374 24.4667162 2.21875 32.71484375 C-1.86798798 49.28072805 4.08079362 66.71729137 11.5625 81.375 C12.29597656 82.39722656 13.02945313 83.41945313 13.78515625 84.47265625 C16.29719964 88.57474029 15.7090485 91.53263481 15.3125 96.1796875 C16.02438389 105.27845349 22.55244802 110.86926263 28.8125 116.875 C30.07320312 118.10863281 30.07320312 118.10863281 31.359375 119.3671875 C33.41823297 121.37925325 35.48585815 123.38132172 37.5625 125.375 C36.2045392 128.43803493 34.69847632 130.44309866 32.26171875 132.73046875 C31.29008789 133.66536133 31.29008789 133.66536133 30.29882812 134.61914062 C28.9488562 135.89961924 27.59477445 137.17578095 26.23632812 138.44726562 C20.42170639 144.06634123 15.60217553 150.01960457 14.875 158.3125 C15.32368034 166.78464063 20.79785377 172.68943556 26.5625 178.375 C27.79770386 179.59449341 27.79770386 179.59449341 29.05786133 180.83862305 C29.9114624 181.67949463 30.76506348 182.52036621 31.64453125 183.38671875 C33.06727487 184.795678 34.49000427 186.20465198 35.91186523 187.61450195 C36.89449785 188.58696884 37.87890133 189.55764932 38.86499023 190.52661133 C40.2961325 191.93362126 41.72045058 193.34756198 43.14453125 194.76171875 C43.99249268 195.59920654 44.8404541 196.43669434 45.71411133 197.29956055 C47.5625 199.375 47.5625 199.375 47.5625 201.375 C41.67771842 200.60453198 36.71315717 199.11622554 31.375 196.5 C15.16402188 188.80025719 -2.98641821 186.04202663 -20.3125 191.75 C-22.69161294 192.61375438 -25.06693533 193.48805403 -27.4375 194.375 C-29.76765239 195.05270104 -32.10062154 195.72086857 -34.4375 196.375 C-34.5309248 172.74881097 -34.60147018 149.12264961 -34.64474869 125.4963131 C-34.66537741 114.52628786 -34.69350404 103.55637737 -34.73925781 92.58642578 C-34.77911595 83.02545935 -34.80493055 73.46457602 -34.81385398 63.90352881 C-34.81907044 58.840594 -34.83133762 53.77789694 -34.86042023 48.7150383 C-34.88757308 43.94950659 -34.89594522 39.18431052 -34.88993073 34.4187088 C-34.89103102 32.66997326 -34.8989857 30.92122647 -34.9143219 29.17255783 C-34.93424827 26.78327736 -34.92943024 24.39526115 -34.91851807 22.00595093 C-34.93016943 21.31527539 -34.9418208 20.62459985 -34.95382524 19.91299474 C-34.89291948 14.97332221 -33.47705745 12.20661725 -30.4375 8.375 C-22.19979575 0.98124764 -10.58193463 -0.15403237 0 0 Z " fill="#18CDFA" transform="translate(70.4375,48.625)"/>
<path d="M0 0 C7.20591397 5.48450118 13.4195261 12.42773482 19.6875 18.9375 C22.76793619 17.57393172 24.77760557 16.05060996 27.078125 13.6015625 C27.70589844 12.94929687 28.33367187 12.29703125 28.98046875 11.625 C30.27385908 10.261906 31.5630111 8.89477649 32.84765625 7.5234375 C37.76844346 2.4322768 42.50335247 -1.29765583 49.59375 -2.59375 C55.74253584 -2.51966824 60.74466086 -1.94770107 65.6875 1.9375 C70.87676273 7.46667077 73.12167709 12.12985131 72.95336914 19.81738281 C71.89311623 28.27214524 65.23420448 33.87628664 59.4375 39.4375 C58.59703125 40.25992188 57.7565625 41.08234375 56.890625 41.9296875 C54.83176703 43.94175325 52.76414185 45.94382172 50.6875 47.9375 C52.08511899 51.12579091 53.71737669 53.16507481 56.2421875 55.546875 C56.93957031 56.21976563 57.63695312 56.89265625 58.35546875 57.5859375 C59.81492871 58.97565336 61.27841632 60.36115292 62.74609375 61.7421875 C67.89482301 66.72972266 71.80252171 71.46055102 73.21875 78.625 C73.13947264 84.49152459 72.34851064 89.21459401 68.6875 93.9375 C63.66216504 98.49605484 59.77420787 101.08545958 52.9375 101.1875 C51.39835937 101.22617188 51.39835937 101.22617188 49.828125 101.265625 C43.90382281 100.64666805 40.05516767 97.68062702 36.015625 93.48828125 C35.18675781 92.64072266 34.35789062 91.79316406 33.50390625 90.91992188 C32.65699219 90.03884766 31.81007812 89.15777344 30.9375 88.25 C29.23888895 86.49172175 27.53598946 84.73757279 25.828125 82.98828125 C25.08079102 82.21137939 24.33345703 81.43447754 23.56347656 80.6340332 C21.86182543 78.71391868 21.86182543 78.71391868 19.6875 78.9375 C19.0275 79.9275 18.3675 80.9175 17.6875 81.9375 C17.0275 81.9375 16.3675 81.9375 15.6875 81.9375 C15.6875 82.5975 15.6875 83.2575 15.6875 83.9375 C15.0275 83.9375 14.3675 83.9375 13.6875 83.9375 C13.6875 84.5975 13.6875 85.2575 13.6875 85.9375 C13.0275 85.9375 12.3675 85.9375 11.6875 85.9375 C11.6875 86.5975 11.6875 87.2575 11.6875 87.9375 C11.0275 87.9375 10.3675 87.9375 9.6875 87.9375 C9.6875 88.5975 9.6875 89.2575 9.6875 89.9375 C9.0275 89.9375 8.3675 89.9375 7.6875 89.9375 C7.6875 90.5975 7.6875 91.2575 7.6875 91.9375 C2.28545356 97.75086977 -2.75260124 100.89876289 -10.75 101.25 C-16.46904022 101.09621068 -20.5991776 99.37190945 -25 95.6875 C-29.69981069 90.09853593 -32.21016894 85.91105737 -31.7890625 78.51953125 C-29.59189517 66.61520664 -17.64958285 57.88929285 -9.3125 49.9375 C-10.74692192 46.62697739 -12.51079688 44.54711536 -15.12109375 42.07421875 C-15.86810547 41.35169922 -16.61511719 40.62917969 -17.38476562 39.88476562 C-18.95369866 38.38579327 -20.52658639 36.89094863 -22.10351562 35.40039062 C-27.17193745 30.48039803 -30.44798044 26.66509796 -31.74609375 19.56640625 C-31.75853298 12.98605158 -30.18257656 8.00069076 -25.62890625 3.140625 C-18.84245877 -2.9890695 -8.19615949 -4.98625673 0 0 Z " fill="#FB4C58" transform="translate(116.3125,126.0625)"/>
<path d="M0 0 C4.46813081 1.7795153 7.57121858 4.13319381 10.06640625 8.234375 C11.95383622 12.78969121 11.71530268 17.65846208 10.9921875 22.46875 C8.99788978 26.34395727 6.55087532 28.70371792 2.65234375 30.6171875 C-2.20901857 32.17339453 -6.9803152 32.24016493 -12.0078125 31.46875 C-16.32867904 29.17422087 -19.18996506 26.00914106 -21.0078125 21.46875 C-21.81990633 15.17238613 -21.19043985 9.95603854 -18.0078125 4.46875 C-12.50813186 -0.62851498 -7.33162345 -1.9398848 0 0 Z " fill="#FCC05B" transform="translate(433.0078125,333.53125)"/>
<path d="M0 0 C2.71464375 2.2632627 2.96531649 2.72748674 3.4375 6.4375 C3 10 3 10 1.64453125 12.21875 C-2.56636284 15.05503908 -6.81005136 14.29974753 -11.75 14.0625 C-19.05989214 13.73511847 -24.26213853 14.05218561 -31 17 C-34.72727539 17.50174861 -36.23014845 17.50648129 -39.375 15.4375 C-41.66695944 11.99956084 -41.71061529 10.05050717 -41 6 C-38.93462439 3.66286444 -37.60927996 2.52866906 -35 1 C-33.99646484 0.40832031 -33.99646484 0.40832031 -32.97265625 -0.1953125 C-23.35591108 -4.89683236 -9.43811006 -5.09657943 0 0 Z " fill="#43635E" transform="translate(427,185)"/>
<path d="M0 0 C2.375 0.9375 2.375 0.9375 4 3 C4.7862132 6.75341207 5.02845924 8.39973802 4 12 C0.67251455 16.49016057 -3.30181721 20.19428475 -7.375 24 C-8.46814259 25.05653171 -9.55931131 26.11510971 -10.6484375 27.17578125 C-19.64738478 35.87475785 -19.64738478 35.87475785 -24.375 36.3125 C-28 36 -28 36 -30.4375 34.375 C-32.54956841 31.16465601 -32.60671011 29.81424373 -32 26 C-29.99757443 23.0914489 -27.55917931 20.67411563 -25.0625 18.1875 C-24.37969971 17.4855249 -23.69689941 16.7835498 -22.9934082 16.06030273 C-21.00893656 14.02653036 -19.00614129 12.01236189 -17 10 C-16.02202001 8.99877846 -15.04525982 7.99636236 -14.0703125 6.9921875 C-6.68828265 -0.53506261 -6.68828265 -0.53506261 0 0 Z " fill="#456766" transform="translate(364,218)"/>
<path d="M0 0 C7.05924237 3.40340785 14.3957384 7.15710802 20.16796875 12.52734375 C21.03354246 15.27997566 20.7771841 17.7226542 20.16796875 20.52734375 C18.60546875 23.02734375 18.60546875 23.02734375 16.16796875 24.52734375 C12.42490561 25.35081764 10.17254058 25.14105828 6.87890625 23.12890625 C5.19082891 21.90170082 3.51422528 20.65860247 1.84765625 19.40234375 C-2.40674207 16.42550528 -7.078443 14.56459586 -11.83203125 12.52734375 C-19.63203125 8.92734375 -19.63203125 8.92734375 -20.83203125 6.52734375 C-21.40448206 -0.68553639 -21.40448206 -0.68553639 -19.33203125 -3.53515625 C-12.71833622 -6.01529189 -6.08285765 -2.65980468 0 0 Z " fill="#476868" transform="translate(332.83203125,188.47265625)"/>
<path d="M0 0 C4.28056979 0.7862271 5.56705284 1.99757549 8.0625 5.5625 C8.3828125 7.875 8.3828125 7.875 8.5 10.4375 C8.76561029 15.26155709 9.95481794 17.65447367 13.30078125 21.09765625 C16.02245696 23.36069038 18.93764661 24.90816585 22.0625 26.5625 C23.50680855 29.45111709 23.43938506 31.35897701 23.0625 34.5625 C21 37.5 21 37.5 18.0625 39.5625 C11.62867549 39.93368218 6.81674686 36.56334162 2.0625 32.5625 C-4.97874644 25.0172164 -7.253426 17.77229824 -7.43359375 7.55078125 C-6.66296753 2.90882018 -4.58716874 0.87839401 0 0 Z " fill="#527981" transform="translate(139.9375,242.4375)"/>
<path d="M0 0 C2.421875 1.7565918 2.421875 1.7565918 4.75 4.19921875 C5.6059375 5.07900391 6.461875 5.95878906 7.34375 6.86523438 C8.2203125 7.79658203 9.096875 8.72792969 10 9.6875 C11.74782007 11.50600397 13.49776452 13.32246891 15.25 15.13671875 C16.06815186 15.99128662 16.88630371 16.84585449 17.72924805 17.72631836 C19.61080103 19.61029889 21.48927282 21.28499569 23.58203125 22.921875 C26 25 26 25 26.6875 28.5625 C26 32 26 32 23.9375 34.5 C21.04349278 35.97779092 19.23236068 36.61499206 16.015625 35.9296875 C11.25879472 33.73564563 7.66637926 29.64913923 4 26 C3.26007813 25.27425781 2.52015625 24.54851562 1.7578125 23.80078125 C-0.17825019 21.8829833 -2.0922937 19.94594541 -4 18 C-4.95711486 17.04044974 -5.91526866 16.08193329 -6.875 15.125 C-11 11 -11 11 -11.4375 8.1875 C-11 5 -11 5 -8.875 2.125 C-5.44301668 -0.41168332 -4.17336101 -0.52918793 0 0 Z " fill="#436262" transform="translate(381,229)"/>
<path d="M0 0 C3.0625 0.5625 3.0625 0.5625 5.9375 2.1875 C9.88564844 8.4580887 8.87118041 15.78564623 7.36328125 22.828125 C4.94295442 30.79375761 1.28718384 38.93418691 -5.9375 43.5625 C-9.55502119 44.09005517 -11.23932885 44.02182313 -14.3125 42 C-16.65117606 38.4919859 -16.62078584 36.73054365 -15.9375 32.5625 C-14.58381251 30.19354689 -13.09532685 28.04321408 -11.4453125 25.87109375 C-7.67158281 20.0931812 -7.64826047 14.28215844 -7.4765625 7.5859375 C-6.64863512 2.9423448 -4.610706 0.88290115 0 0 Z " fill="#3E5D5C" transform="translate(449.9375,216.4375)"/>
<path d="M0 0 C2.5 1.625 2.5 1.625 4 4 C4.5 7 4.5 7 4 10 C0.93408727 13.86799748 -2.35610529 15.11550451 -6.9375 16.75 C-13.62192679 19.22255792 -19.23412199 22.43117264 -25.09765625 26.4609375 C-28.4004711 28.21236287 -30.31479769 28.47100198 -34 28 C-37.17489516 25.31355025 -37.9287463 23.76953997 -38.3125 19.625 C-35.31163113 11.33688599 -26.64529653 8.15868118 -19.125 4.625 C-6.95410412 -0.99344345 -6.95410412 -0.99344345 0 0 Z " fill="#4B6E72" transform="translate(278,184)"/>
<path d="M0 0 C3.70809529 1.53462371 6.67140483 4.15366686 9.828125 6.59375 C14.24400773 9.67004241 18.92563658 11.94754819 23.77905273 14.24829102 C28.91498671 16.69233046 28.91498671 16.69233046 31.0859375 18.86328125 C31.51427835 22.71834887 31.64490952 24.9912849 29.5234375 28.30078125 C26.13852042 30.47059989 24.07979162 30.20016122 20.0859375 29.86328125 C17.29444136 28.91403902 14.74765828 27.62210403 12.1484375 26.23828125 C11.44549561 25.87436279 10.74255371 25.51044434 10.01831055 25.13549805 C4.99693498 22.4817835 0.36801326 19.61683885 -3.9140625 15.86328125 C-4.9040625 15.05890625 -5.8940625 14.25453125 -6.9140625 13.42578125 C-8.9140625 10.86328125 -8.9140625 10.86328125 -9.4765625 7.30078125 C-8.9140625 3.86328125 -8.9140625 3.86328125 -7.3515625 1.36328125 C-4.67855648 -0.28164553 -3.08544124 -0.6444276 0 0 Z " fill="#466667" transform="translate(334.9140625,345.13671875)"/>
<path d="M0 0 C3.5 0.875 3.5 0.875 5.5 2.4375 C6.98126619 6.04808635 6.15467867 9.1651542 5.5 12.875 C4.48741582 19.87996667 4.21327772 26.82090551 4.0703125 33.89257812 C4.02390625 35.17745117 4.02390625 35.17745117 3.9765625 36.48828125 C3.95674316 37.25954346 3.93692383 38.03080566 3.91650391 38.82543945 C3.39360823 41.39853982 2.55231717 42.27730236 0.5 43.875 C-2.375 44.8125 -2.375 44.8125 -5.5 44.875 C-8.3125 43.375 -8.3125 43.375 -10.5 40.875 C-11.22768349 38.30011994 -11.43722167 36.51169005 -11.5 33.875 C-11.53867187 32.84890625 -11.57734375 31.8228125 -11.6171875 30.765625 C-12.04019645 9.6151776 -12.04019645 9.6151776 -6.5 1.875 C-3.5 -0.125 -3.5 -0.125 0 0 Z " fill="#46696E" transform="translate(315.5,276.125)"/>
<path d="M0 0 C2.5 1.625 2.5 1.625 4 4 C4.5625 6.875 4.5625 6.875 4 10 C1.0415396 14.34523871 -2.62112536 17.49248042 -6.625 20.859375 C-8.4977199 22.54728701 -10.21409151 24.24589303 -11.9375 26.078125 C-12.45368896 26.62065918 -12.96987793 27.16319336 -13.50170898 27.72216797 C-14.522109 28.80274174 -15.53011208 29.89519402 -16.52368164 31.00048828 C-19.19873956 33.81211613 -20.92085999 34.97996561 -24.71875 35.94140625 C-28 36 -28 36 -30.4375 34.5625 C-32.55822857 31.08450514 -32.68385852 27.93218649 -32 24 C-30.38498583 21.57975769 -29.07192932 19.9433198 -27.03125 17.96875 C-26.51751831 17.4473645 -26.00378662 16.925979 -25.4744873 16.38879395 C-24.38798458 15.29687144 -23.29140871 14.21488989 -22.18554688 13.14257812 C-20.50377062 11.50367449 -18.86900969 9.8264035 -17.234375 8.140625 C-16.16922207 7.08075898 -15.10158988 6.02337756 -14.03125 4.96875 C-13.54756958 4.46887573 -13.06388916 3.96900146 -12.56555176 3.45397949 C-8.35339072 -0.53684244 -5.50955836 -0.60078388 0 0 Z " fill="#4E737A" transform="translate(219,229)"/>
<path d="M0 0 C0.4434375 0.59683594 0.886875 1.19367188 1.34375 1.80859375 C4.3305561 5.76047635 7.46101635 9.53303055 11 13 C8.6750948 14.18667036 6.34240541 15.34879886 4 16.5 C3.35160156 16.83386719 2.70320313 17.16773438 2.03515625 17.51171875 C-2.88255984 19.89754141 -6.5343211 20.47706896 -12 20 C-14 18.4375 -14 18.4375 -15 16 C-15.64615385 9.86153846 -15.64615385 9.86153846 -13.86328125 7.484375 C-11.35852386 5.48897079 -8.69261285 4.20610299 -5.8125 2.8125 C-4.72582031 2.28269531 -3.63914062 1.75289063 -2.51953125 1.20703125 C-1.68808594 0.80871094 -0.85664063 0.41039062 0 0 Z " fill="#43615F" transform="translate(411,353)"/>
<path d="M0 0 C0.33 0 0.66 0 1 0 C1 49.83 1 99.66 1 151 C-0.96591755 147.06816489 -1.24736203 145.69747898 -1.23377991 141.4967041 C-1.23508408 140.37790359 -1.23638824 139.25910309 -1.23773193 138.10639954 C-1.22897034 136.8834166 -1.22020874 135.66043365 -1.21118164 134.40039062 C-1.2098674 133.10900681 -1.20855316 131.81762299 -1.2071991 130.48710632 C-1.20426788 127.68078159 -1.19502803 124.87457357 -1.18089485 122.06828308 C-1.15861762 117.63101338 -1.15053683 113.19378691 -1.14439392 108.75646973 C-1.13301541 101.73834857 -1.1122911 94.72029158 -1.08749622 87.70220613 C-1.043166 75.13318257 -1.00997893 62.56413668 -0.98725218 49.99505568 C-0.97884464 45.58387357 -0.96481938 41.17275506 -0.94627964 36.76160431 C-0.93819816 34.67870136 -0.93236334 32.59580644 -0.92750549 30.51289368 C-0.92147446 27.97311713 -0.91178799 25.43334564 -0.89779663 22.89360046 C-0.89552315 21.2153997 -0.89552315 21.2153997 -0.89320374 19.5032959 C-0.88968431 18.53139061 -0.88616488 17.55948532 -0.8825388 16.55812836 C-0.99042128 14.2086101 -1.4122588 12.26236733 -2 10 C-1.66015625 7.421875 -1.66015625 7.421875 -1.0625 4.75 C-0.86785156 3.85796875 -0.67320312 2.9659375 -0.47265625 2.046875 C-0.31667969 1.37140625 -0.16070312 0.6959375 0 0 Z " fill="#2ECEFB" transform="translate(479,176)"/>
<path d="M0 0 C1.62490954 -0.02698189 3.24994633 -0.04638757 4.875 -0.0625 C5.77992187 -0.07410156 6.68484375 -0.08570313 7.6171875 -0.09765625 C10 0 10 0 12 1 C12.37890625 2.92578125 12.37890625 2.92578125 12.5625 5.3125 C12.80590173 8.31776628 13.1945856 11.0911893 14 14 C10.18498564 11.8925942 7.25605796 9.52641324 4.1875 6.4375 C3.39730469 5.65246094 2.60710937 4.86742187 1.79296875 4.05859375 C0 2 0 2 0 0 Z " fill="#6ABF4F" transform="translate(121,250)"/>
<path d="M0 0 C0.33 0 0.66 0 1 0 C1 5.61 1 11.22 1 17 C0.01 16.01 -0.98 15.02 -2 14 C-1.81707476 11.2103901 -1.5177795 8.72218725 -1 6 C-0.814375 4.845 -0.62875 3.69 -0.4375 2.5 C-0.293125 1.675 -0.14875 0.85 0 0 Z " fill="#2DCFEB" transform="translate(479,176)"/>
</svg>
